PathFileType	4	(X/Y/Z)	C:/Users/beibeiliu/ov580/test_trc/User3\out5_training_dense_left.trc
DataRate	CameraRate	NumFrames	NumMarkers	Units	OrigDataRate	OrigDataStartFrame	OrigNumFrames
120	120	18	19	mm	120	188	500
Frame#	Time	ThumbCMC			ThumbMCP			ThumbIP			ThumbTip			IndexMCP			IndexPIP			IndexTip			MiddleMCP			MiddlePIP			MiddleTip			RingMCP			RingPIP			RingTip			PinkyMCP			PinkyPIP			PinkyTip			BackHand1			BackHand2			BackHand3	
		X0	Y0	Z0	X1	Y1	Z1	X2	Y2	Z2	X3	Y3	Z3	X4	Y4	Z4	X5	Y5	Z5	X6	Y6	Z6	X7	Y7	Z7	X8	Y8	Z8	X9	Y9	Z9	X10	Y10	Z10	X11	Y11	Z11	X12	Y12	Z12	X13	Y13	Z13	X14	Y14	Z14	X15	Y15	Z15	X16	Y16	Z16	X17	Y17	Z17	X18	Y18	Z18	
187	1.55833	-147.305	94.3921	8.36094	-134.031	121.656	-7.21698	-109.838	137.118	-24.5997	-84.4551	124.112	-28.8875	-110.322	105.951	-51.1703	-97.0811	125.907	-31.4729	-115.55	103.091	-8.4937	-95.5703	97.4091	-47.9432	-82.3951	113.51	-22.8011	-105.229	94.3919	0.92152	-84.5432	87.3865	-33.4039	-80.5634	100.263	-6.56811	-101.789	82.8029	10.3638	-72.6371	73.3789	-19.0823	-77.3302	84.9129	6.10805	-99.9089	67.5613	16.931	-118.945	44.6119	-19.4115	-127.585	33.3088	10.8152	-146.181	57.7101	-8.82535	
188	1.56667	-151.146	90.922	6.44239	-139.487	118.301	-14.1889	-118.095	130.273	-34.7407	-92.0392	116.289	-37.977	-120.621	97.8418	-56.7401	-105.274	120.174	-39.4079	-118.054	98.4741	-13.8158	-101.938	84.3131	-52.8462	-90.394	109.873	-32.4894	-113.116	88.1382	-3.09255	-87.6952	78.9693	-38.517	-82.658	94.5124	-12.1346	-107.39	77.6618	4.42438	-78.7962	71.8458	-25.6958	-78.3826	82.4807	-2.23811	-97.1697	65.1543	13.4327	-118.515	34.1172	-19.6859	-129.586	29.3917	15.4259	-149.124	52.0975	-8.64075	
189	1.575	-151.908	87.265	5.52055	-141.743	108.466	-17.1287	-125.138	123.722	-39.4308	-97.6581	110.616	-48.8301	-132.341	88.8674	-59.6586	-111.83	112.891	-45.5597	-122.669	96.8256	-17.9201	-111.301	77.8298	-58.4752	-94.1456	101.348	-41.1203	-111.679	82.3916	-8.66307	-96.8123	74.1121	-45.4564	-86.1824	88.4189	-17.8661	-110.252	73.0839	1.35239	-82.5687	64.3371	-33.2773	-83.8912	78.6362	-12.2678	-101.823	62.7268	8.1189	-127.106	30.1281	-15.0503	-130.525	25.2213	17.291	-152.908	50.5858	-3.37475	
190	1.58333	-153.433	86.4461	7.15157	-143.731	106.547	-20.4544	-129.081	115.451	-46.0783	-105.726	102.318	-56.288	-138.958	79.6181	-59.2381	-115.021	100.54	-52.2373	-124.722	88.2945	-20.0124	-118.881	69.6099	-61.0302	-101.721	94.9549	-44.6433	-113.284	77.3775	-12.2704	-101.097	59.4506	-47.284	-91.4986	82.3212	-28.1172	-108.494	67.0416	-1.21526	-91.8239	50.6747	-37.4122	-87.1344	71.8082	-17.6952	-104.563	58.8084	6.40517	-127.715	24.5095	-16.3799	-129.969	22.5333	16.167	-157.033	47.6216	3.62404	
191	1.59167	-151.899	80.6147	7.5009	-147.04	100.785	-16.4528	-136.143	107.653	-43.7408	-115.002	92.4309	-57.7702	-145.425	73.1614	-58.7997	-121.444	94.9116	-53.0793	-124.734	82.6348	-22.2951	-127.804	60.7892	-60.9905	-105.588	82.9568	-51.5954	-117.937	70.6779	-12.9412	-112.201	56.2463	-50.7355	-94.8261	72.8758	-31.0623	-110.466	62.084	-3.82903	-100.535	45.0893	-39.0771	-89.6386	64.4177	-23.0438	-107.357	53.8588	2.25643	-135.088	18.5736	-11.4988	-133.522	19.4433	19.667	-156.196	42.0351	8.23369	
192	1.6	-153.647	82.3231	12.7852	-149.949	97.5477	-17.8732	-141.391	99.5987	-46.4217	-121.059	86.4608	-64.0256	-153.85	68.6637	-58.0323	-128.323	84.7331	-56.5548	-131.95	79.2183	-20.9255	-138.165	51.9392	-57.8181	-113.125	73.5127	-53.0808	-119.656	66.6952	-14.7555	-118.037	45.7433	-49.3816	-99.9902	65.8614	-34.4063	-116.945	60.6572	-4.53048	-104.441	34.4271	-39.5973	-92.5836	55.7478	-25.5389	-104.926	49.2166	3.70021	-140.848	16.4925	-3.50484	-137.558	21.1744	29.066	-160.72	42.3676	13.285	
193	1.60833	-154.348	80.4513	17.7907	-150.007	91.8727	-13.9987	-146.593	94.6888	-46.4076	-131.884	83.0238	-64.7582	-161.718	64.6815	-54.9323	-136.525	81.5628	-53.9225	-133.349	71.9298	-20.9759	-145.684	50.0006	-57.37	-121.104	66.9891	-53.8237	-124.467	60.2854	-14.5227	-126.218	39.2617	-48.5411	-107.641	58.8088	-35.4839	-115.986	54.8385	-5.48608	-118.4	28.0788	-37.6302	-99.3196	48.4438	-26.5258	-110.773	43.1725	5.53404	-147.755	12.3803	-2.31827	-140.2	13.7066	32.0209	-165.684	42.4191	17.7323	
194	1.61667	-154.634	76.6766	16.8448	-154.661	91.4746	-12.3007	-151.675	93.5347	-39.9305	-141.582	76.0444	-59.7468	-170.417	60.6926	-49.2672	-142.695	77.5751	-50.715	-139.959	73.4043	-20.873	-157.468	46.8544	-52.211	-128.778	64.2382	-50.042	-129.844	57.2512	-13.6062	-139.361	33.3898	-44.0694	-115.323	51.8093	-37.5558	-125.151	51.1625	-1.73989	-126.833	23.0882	-36.4554	-109.893	44.5578	-24.2708	-117.085	41.238	4.81876	-155.364	11.2013	5.23204	-143.74	15.8345	35.1998	-167.374	40.7952	25.1042	
195	1.625	-154.828	77.4465	23.028	-157.173	89.5374	-6.77327	-161.377	93.2249	-38.763	-151.66	79.159	-58.6258	-182.249	60.7404	-41.8683	-151.194	74.7916	-49.7036	-147.48	69.8966	-18.4513	-167.088	45.1376	-49.0639	-139.082	59.0133	-51.8046	-139.4	56.1256	-8.55666	-148.193	30.3588	-40.6446	-123.256	47.4618	-36.1589	-126.944	48.6325	-2.1844	-136.41	23.12	-34.274	-119.313	40.743	-26.544	-125.332	40.0276	5.73136	-165.288	11.538	9.26623	-151.546	15.554	36.2356	-174.24	40.9852	26.129	
196	1.63333	-158.45	74.7656	23.4706	-161.538	89.2701	-4.06616	-165.978	94.6487	-35.0169	-161.857	74.0256	-60.329	-191.456	62.8071	-38.4834	-164.183	72.9809	-50.829	-153.918	67.1739	-17.9684	-178.386	43.7121	-43.4727	-146.833	57.8497	-47.7857	-146.03	57.6023	-6.38532	-158.92	31.853	-40.1857	-133.695	51.1352	-33.7996	-135.008	50.3589	-1.5259	-147.713	21.6547	-32.2925	-127.098	39.1452	-24.9849	-129.412	36.7698	6.03846	-171.45	10.678	12.2144	-156.146	12.6708	40.7348	-177.429	45.3247	33.2906	
197	1.64167	-163.403	77.9093	23.1175	-164.062	87.9471	-5.79471	-171.194	89.3451	-38.0916	-167.769	73.7051	-60.8164	-199.28	64.0937	-38.9635	-170.405	72.7688	-49.562	-161.754	69.5359	-19.9062	-186.873	42.1448	-43.6565	-160.437	60.0598	-51.9555	-150.491	56.7708	-9.77555	-169.491	31.6462	-39.8295	-143.198	47.8315	-38.3239	-139.476	45.8043	-5.23509	-157.301	20.0171	-33.8232	-135.312	35.8248	-27.9202	-133.304	37.2428	1.12202	-179.785	13.1289	12.8128	-158.726	14.2439	41.5947	-182.427	43.0897	30.8573	
198	1.65	-162.808	77.4707	22.6081	-165.564	82.1233	-10.6624	-170.105	86.6319	-39.3537	-170.783	67.0518	-62.5141	-205.895	60.4769	-35.8469	-181.586	74.3917	-53.8101	-167.011	67.6224	-24.1635	-193.624	41.3919	-47.697	-164.751	53.6032	-55.0436	-154.42	55.0909	-16.5965	-176.527	25.8423	-40.877	-147.687	40.3226	-42.2376	-144.519	45.9588	-11.5089	-165.178	13.3943	-34.9232	-141.37	30.7176	-35.0297	-137.717	33.251	-5.33976	-185.827	10.7248	11.2611	-165.45	14.1196	39.2583	-184.965	43.4053	33.6415	
199	1.65833	-166.133	70.76	16.8642	-168.65	78.3498	-15.7686	-172.974	80.2929	-47.8661	-170.116	62.6118	-64.1643	-210.972	55.4581	-41.2895	-189.511	67.9988	-59.7593	-171.647	70.3804	-30.6994	-202.401	40.9108	-48.7104	-176.505	50.1472	-62.5544	-157.402	51.1552	-28.1581	-184.139	25.3836	-43.6633	-157.278	38.2033	-49.9974	-150.167	41.5907	-16.4864	-169.489	11.3968	-42.0606	-150.229	26.8601	-43.2892	-142.272	28.7279	-13.6612	-190.013	14.3299	10.6874	-170.355	12.1399	38.4817	-192.743	46.2036	29.3397	
200	1.66667	-168.365	71.6738	15.0275	-168.428	78.9377	-18.0303	-170.174	80.1037	-49.4988	-168.698	56.4079	-63.8316	-215.588	53.3126	-42.9567	-198.194	66.2458	-64.724	-174.951	71.8126	-38.2456	-207.633	34.3944	-46.5191	-182.381	50.6243	-67.4437	-163.173	48.2371	-34.6737	-192.833	23.6218	-43.2827	-166.738	31.911	-59.0596	-155.279	41.2384	-26.61	-179.932	7.74102	-39.1415	-158.883	20.8757	-51.058	-145.114	26.9433	-22.0704	-190.423	11.5459	12.546	-173.355	10.0536	37.9682	-191.059	41.5072	30.7171	
201	1.675	-168.086	72.8762	14.0343	-163.942	83.4713	-18.0827	-166.847	77.6996	-47.5693	-165.811	53.389	-63.9414	-216.011	54.0742	-40.4293	-198	63.8011	-66.9031	-176.693	69.7073	-45.8526	-214.399	38.5812	-48.0272	-189.242	46.9476	-70.3162	-166.778	48.3495	-40.3871	-199.81	19.0828	-48.2994	-173.816	27.1606	-63.3239	-158.288	35.6809	-33.547	-188.89	4.64495	-40.4119	-167.398	15.8385	-58.1112	-150.32	22.6249	-35.8681	-196.837	12.7711	8.82173	-178.183	13.4143	38.6223	-193.76	44.3893	30.0234	
202	1.68333	-164.37	72.0088	16.8555	-165.641	75.2157	-19.7115	-166.028	70.394	-49.2899	-164.745	45.901	-63.949	-215.705	60.3118	-39.874	-198.59	67.7197	-69.5328	-174.397	67.9051	-48.5084	-216.401	41.5883	-46.7186	-193.705	48.9971	-73.8197	-169.207	45.2088	-45.8082	-205.537	25.2831	-46.4738	-185.507	29.0605	-68.5704	-161.88	35.0793	-44.5403	-195.003	7.3856	-41.0765	-180.647	12.5126	-60.9918	-153.424	20.8077	-46.2523	-199.447	17.6957	7.79004	-185.362	14.9595	36.7887	-196.004	46.7087	23.7634	
203	1.69167	-166.435	72.1585	13.5358	-163.015	76.8402	-23.2344	-164.376	68.8469	-53.1007	-165.844	42.0121	-58.9369	-214.228	60.2009	-42.9889	-198.494	69.5352	-71.0195	-171.38	67.8416	-49.0393	-216.517	42.8307	-47.7082	-196.847	49.6711	-75.1688	-170.378	49.5967	-46.8865	-206.576	22.4348	-46.9651	-184.042	29.4733	-68.9028	-161.322	32.122	-43.9947	-196.587	7.35649	-36.4602	-183.609	14.2191	-62.1746	-159.043	20.6944	-51.7323	-201.49	15.7924	6.30366	-187.264	10.5598	36.4224	-196.913	50.8841	23.4664	
204	1.7	-167.414	68.6856	13.5349	-163.54	76.903	-22.1603	-163.031	67.336	-48.201	-165.953	38.5216	-59.7856	-213.635	64.7189	-48.8354	-192.72	65.1667	-71.9004	-169.327	67.1604	-46.8867	-216.558	41.3433	-50.9253	-198.479	47.3138	-77.6232	-170.047	43.6721	-49.7015	-207.174	25.9902	-48.096	-184.34	28.7312	-70.4833	-162.362	30.9421	-49.6164	-197.487	7.05491	-37.7852	-184.757	12.8351	-63.3437	-156.568	17.5462	-53.6757	-202.401	19.7246	7.09852	-189.161	15.7009	34.3172	-198.098	48.9921	23.8888	
